<mxfile host="app.diagrams.net" modified="2022-02-02T18:14:18.566Z" agent="5.0 (X11; Linux x86_64) AppleWebKit/537.36 (KHTML, like Gecko) Chrome/97.0.4692.99 Safari/537.36" etag="xNcl2cp0WqErpqtPNK2S" version="16.5.3" type="github">
  <diagram id="IaKayr9gkqgpFEkCj5VY" name="Page-1">
    <mxGraphModel dx="868" dy="452" grid="1" gridSize="10" guides="1" tooltips="1" connect="1" arrows="1" fold="1" page="1" pageScale="1" pageWidth="827" pageHeight="1169" math="0" shadow="0">
      <root>
        <mxCell id="0" />
        <mxCell id="1" parent="0" />
      </root>
    </mxGraphModel>
  </diagram>
</mxfile>
